<svg id="Layer_1" data-name="Layer 1" xmlns="http://www.w3.org/2000/svg" xmlns:xlink="http://www.w3.org/1999/xlink" viewBox="0 0 362.34 362.33"><defs><style>.cls-1{fill:none;}.cls-2{clip-path:url(#clip-path);}.cls-3{fill:#33373c;}</style><clipPath id="clip-path" transform="translate(0.02)"><rect class="cls-1" width="362.33" height="362.33"/></clipPath></defs><title>facebook</title><g class="cls-2"><path class="cls-3" d="M181.16,0A181.18,181.18,0,0,0,0,181.18c0,100,81.13,181.15,181.18,181.15s181.17-81.11,181.17-181.15A181.17,181.17,0,0,0,181.16,0m0,339.68a158.52,158.52,0,1,1,158.52-158.5,158.51,158.51,0,0,1-158.52,158.5" transform="translate(0.02)"/></g><path class="cls-3" d="M190.75,311.27v-112h37.58L234,155.68h-43.2V127.8c0-12.62,3.51-21.23,21.62-21.23l23.11,0v-39a313.43,313.43,0,0,0-33.67-1.71c-33.32,0-56.13,20.34-56.13,57.67v32.19H108v43.63h37.67v112" transform="translate(0.02)"/></svg>