<svg id="Layer_1" data-name="Layer 1" xmlns="http://www.w3.org/2000/svg" xmlns:xlink="http://www.w3.org/1999/xlink" viewBox="0 0 438.24 438.22"><defs><style>.cls-1{fill:none;}.cls-2{clip-path:url(#clip-path);}.cls-3{fill:#33373c;}</style><clipPath id="clip-path" transform="translate(0.02 0)"><rect class="cls-1" width="438.22" height="438.24"/></clipPath></defs><title>linkedin</title><g class="cls-2"><path class="cls-3" d="M219.11,0C98.09,0,0,98.11,0,219.13S98.09,438.22,219.11,438.22s219.11-98.08,219.11-219.09S340.12,0,219.11,0m0,410.85C113.2,410.85,27.39,325,27.39,219.13S113.2,27.39,219.11,27.39s191.72,85.85,191.72,191.74S325,410.85,219.11,410.85" transform="translate(0.02 0)"/></g><rect class="cls-3" x="129.48" y="174.53" width="43.93" height="140.46"/><path class="cls-3" d="M165.21,108.81a26.76,26.76,0,0,0-13.93-4.1q-11.44,0-19.36,9a25.29,25.29,0,0,0-6,16.38c0,7.45,3,13.8,9,19.08a25.64,25.64,0,0,0,16.63,6q11.74,0,19.65-9.83a25,25,0,0,0,5.18-15.55q0-12.81-11.17-21" transform="translate(0.02 0)"/><path class="cls-3" d="M283.85,170.71a47.76,47.76,0,0,0-31.08,11.19q-5.49,4.65-6.82,6.82a31.87,31.87,0,0,0-3,5.18h-.28c-.18,0-.27-.07-.27-.27v-19.1H200.66V315H244V249.56c0-12.38.89-20.65,2.72-24.83q5.72-15.28,22.9-15.28h1.64q13.36,0,18.56,12.28c1.62,4.18,2.45,7.18,2.45,9,.35,2.17.55,9.08.55,20.73V315h43.89V236.73q0-36-12.52-50.73-12.3-15.28-40.38-15.29" transform="translate(0.02 0)"/></svg>