<svg id="Layer_1" data-name="Layer 1" xmlns="http://www.w3.org/2000/svg" viewBox="0 0 841.89 298.9"><defs><style>.cls-1{fill:#231f20;}.cls-2{fill:#e52628;}</style></defs><title>solent_university</title><path class="cls-1" d="M53.69,291.26c-4.15,4.58-10.54,7.64-19.91,7.64-8.84,0-14.7-2.83-18.53-6.82-5.65-6.1-6.82-15.16-6.82-22.2V220.31h7.78V270c0,5.29,1.06,11.74,5,16.09,2.66,3.05,6.71,5.05,12.78,5.05,6.71,0,11.08-2,13.95-5.16,3.19-3.77,4.37-9.17,4.37-15.28V220.31h7.77v51.57c0,7-1.81,14.21-6.39,19.38" transform="translate(0 0)"/><path class="cls-1" d="M162.93,297.72l-35.57-52.15c-4.16-6.11-6.07-9-7.35-12.11h-.21c.1,2.59.21,5.29.21,9.4v54.86h-7.77V220.31h8.09l34.07,50.28c4.8,7,6.71,10,8,13h.2c-.1-2.59-.2-5.29-.2-9.4V220.31h7.76v77.41h-7.23" transform="translate(0 0)"/><rect class="cls-1" x="222.19" y="220.31" width="7.77" height="77.41"/><path class="cls-1" d="M306.25,298.07h-4.36L274.2,220.31h8.31l18,51.57c1.28,3.76,2.66,8,3.94,12h.21c1.18-4,2.45-7.75,4.06-12l19.48-51.57h8.1l-30,77.76" transform="translate(0 0)"/><polyline class="cls-1" points="380.7 297.72 380.7 220.31 415.09 220.31 412.11 228.3 388.47 228.3 388.47 254.14 411.9 254.14 411.9 262.01 388.47 262.01 388.47 289.74 415.41 289.74 415.41 297.72 380.7 297.72"/><path class="cls-1" d="M498.62,297.72C487.33,278,480.73,265,477.1,265h-7v32.77h-7.77V220.31h13.95c17,0,23.74,9.51,23.74,21.15,0,11.15-6.18,17.38-13.73,20.55v.24c2.23,1.29,10.22,15.62,21.61,35.47h-9.26M476.79,228.3h-6.71V257h6.28c9.05,0,15.23-6.46,15.23-14.8,0-7.4-3.63-13.86-14.8-13.86" transform="translate(0 0)"/><path class="cls-1" d="M568.45,298.9a31.34,31.34,0,0,1-19.16-6.12l3.72-6.92a25.59,25.59,0,0,0,15.34,5.41c6.39,0,13.95-3.42,13.95-11.63,0-13.63-16.83-16.45-25.45-26.67a20.8,20.8,0,0,1-5-14c0-10.92,7.45-19.26,20.23-19.26a30.59,30.59,0,0,1,15.54,3.76v9.16a26.77,26.77,0,0,0-15.33-5.05c-6.82,0-12.78,3.05-12.78,10.57,0,17.27,31.1,17.38,31.1,40.65,0,12-9.48,20.08-22.16,20.08" transform="translate(0 0)"/><rect class="cls-1" x="638.21" y="220.31" width="7.77" height="77.41"/><polyline class="cls-1" points="738.39 228.3 718.48 228.3 718.48 297.72 710.71 297.72 710.71 228.3 690.58 228.3 690.58 220.31 741.16 220.31 738.39 228.3"/><path class="cls-1" d="M812.39,266.72v31h-7.77V266.47l-23.33-46.16h8.52l12.47,24.79c2.13,4.11,4.57,8.93,6.28,12.92h.21c1.6-4,3.94-8.93,5.86-12.92l12.13-24.79H835l-22.58,46.41" transform="translate(0 0)"/><path class="cls-2" d="M43.24,158.62c-19.81,0-33.87-7-43.24-14.09l10.44-20.92c7.67,5.88,18.53,11.75,31.74,11.75,10.86,0,23.22-4.93,23.22-17.86,0-22.09-34.09-26.09-51.13-47.23C8.73,63.45,5.11,54.52,5.11,42.54,5.11,19.5,21.51,0,50.91,0,65.83,0,77.76,4,85.43,8.69L85,34.07C74.13,27.5,63.69,23.26,52.19,23.26,40.9,23.26,32,28.68,32,39c0,28.67,60.72,27,60.72,75.2,0,27.26-21.73,44.41-49.43,44.41" transform="translate(0 0)"/><path class="cls-2" d="M253.81,136.3c-12.79,14.1-30.47,22.32-51.56,22.32-20.45,0-37.28-6.58-49.64-19-14.27-14.11-22.16-35-22.16-59.22,0-23,7.25-43.24,20.24-57.81C163.26,8.46,180.94,0,202.25,0c22.58,0,41.33,8.69,53.9,24,11.72,14.1,17.68,33.37,17.68,55,0,22.79-7,43.24-20,57.34M202,23.73c-26.2,0-44.52,20.92-44.52,55.7,0,35,18.32,55.93,44.52,55.93,26,0,44.32-20.92,44.32-55.93,0-33.84-17.47-55.7-44.32-55.7" transform="translate(0 0)"/><polyline class="cls-2" points="319.08 156.28 319.08 1.42 344.86 1.42 344.86 132.3 395.14 132.3 395.14 156.28 319.08 156.28"/><polyline class="cls-2" points="436.83 156.28 436.83 1.42 515.02 1.42 507.99 25.15 462.62 25.15 462.62 65.33 507.99 65.33 507.99 89.06 462.62 89.06 462.62 132.54 515.02 132.54 515.02 156.28 436.83 156.28"/><path class="cls-2" d="M666.23,156.28,602.75,65.57c-6-8.7-10-14.57-13.85-21.16h-.43c.43,5.18.64,13.4.64,20.69v91.18H563.33V1.42h26.2L650.68,88.6c6.6,9.4,10.44,15.27,13.85,21.61H665c-.42-6.81-.42-15.73-.42-22.55V1.42h25.56V156.28H666.23" transform="translate(0 0)"/><polyline class="cls-2" points="835.71 25.15 797.36 25.15 797.36 156.27 771.37 156.27 771.37 25.15 730.69 25.15 730.69 1.41 841.89 1.41 835.71 25.15"/></svg>