<svg id="Layer_1" data-name="Layer 1" xmlns="http://www.w3.org/2000/svg" viewBox="0 0 344.09 344.09"><defs><style>.cls-1{fill:#33373c;}</style></defs><title>twitter</title><path class="cls-1" d="M172.05,0a172,172,0,1,0,172,172.06A172.05,172.05,0,0,0,172.05,0m0,322.6A150.55,150.55,0,1,1,322.6,172.06,150.56,150.56,0,0,1,172.05,322.6"/><path class="cls-1" d="M273.86,94.21a88.9,88.9,0,0,1-28.07,10.73,44.24,44.24,0,0,0-76.5,30.25,45.4,45.4,0,0,0,1.14,10.08A125.49,125.49,0,0,1,79.3,99.05,44.3,44.3,0,0,0,93,158.1a43.94,43.94,0,0,1-20-5.53,5.06,5.06,0,0,0,0,.55,44.29,44.29,0,0,0,35.47,43.38,44.93,44.93,0,0,1-20,.75,44.28,44.28,0,0,0,41.3,30.7,88.68,88.68,0,0,1-54.91,18.92,89.62,89.62,0,0,1-10.55-.62,125.19,125.19,0,0,0,67.78,19.88c81.32,0,125.8-67.37,125.8-125.82,0-1.92,0-3.81-.11-5.72a90.72,90.72,0,0,0,22.06-22.88,89.22,89.22,0,0,1-25.41,7,44.46,44.46,0,0,0,19.45-24.47"/></svg>