<svg width="262" height="125" xmlns="http://www.w3.org/2000/svg" xmlns:xlink="http://www.w3.org/1999/xlink"><defs><path id="a" d="M.246 59h38.02V.773H.246V59z"/></defs><g fill="none" fill-rule="evenodd"><path d="M16.235 47.61c3.939 0 6.337-2.998 6.337-6.423 0-3.51-2.398-6.337-6.337-6.337H12.98v12.76h3.254zm.085-23.549c3.597 0 5.652-2.826 5.652-6.25 0-3.597-2.055-5.909-5.908-5.909H12.98v12.16h3.339zM0 58.912V.685h16.835c10.104 0 17.81 7.107 17.81 16.526 0 5.566-2.911 9.59-5.993 11.988 3.338 2.312 6.678 6.508 6.678 12.416 0 9.42-7.621 17.297-18.667 17.297H0zM172.663 17.982c0-3.168-1.456-5.566-4.538-5.566h-3.854v34.85h3.854c3.082 0 4.538-2.568 4.538-5.565V17.98zm-21.835 40.93V.685h19.095c8.82 0 16.269 5.737 16.269 15.67v26.973c0 10.019-7.45 15.584-16.27 15.584h-19.094zM214.384 38.361h-4.624V27.658h17.725V42.9c0 10.275-7.792 16.697-17.896 16.697-10.019 0-18.068-6.508-18.068-16.697V16.697c0-10.104 8.05-16.697 18.24-16.697 10.445 0 17.724 6.507 17.724 17.04v2.911h-13.1v-3.168c0-3.51-2.398-4.966-4.71-4.966s-4.71 1.541-4.71 4.623v26.716c0 2.912 2.312 4.71 4.71 4.71 2.226 0 4.71-1.798 4.71-4.71v-4.795zM56.337 25.86c3.854 0 6.08-3.34 6.08-7.193 0-3.853-2.226-6.508-6.08-6.508h-2.74v13.7h2.74zm7.278 33.052l-7.963-22.52h-2.055v22.52H40.068V.685h16.526c11.817 0 19.267 5.738 19.267 17.297 0 6.936-2.74 12.245-7.878 15.328l10.104 25.602H63.615zM133.799 0l9.566 9.566-50.03 50.031-9.567-9.566zM62.863 124.396v-23.548h-9.351v23.548H40.069V66.169h13.443v22.948h9.35V66.169h13.53v58.227zM81.816 124.396V66.169h28.553v11.816H95.26v11.132h9.161v11.731h-9.16v11.817h15.108v11.731zM134.835 85.692h-.171l-3.511 21.664h6.85l-3.168-21.664zm5.737 38.704l-1.028-7.021H129.44l-1.113 7.02h-13.443l13.1-58.226h14.129l12.502 58.227h-14.043zM161.458 124.396V77.985h-10.63V66.169h34.79v11.816h-10.631v46.411z" fill="#FFF"/><g transform="translate(191 65.396)"><mask id="b" fill="#fff"><use xlink:href="#a"/></mask><path d="M16.516 25.947c3.854 0 6.08-3.339 6.08-7.193 0-3.853-2.226-6.508-6.08-6.508h-2.74v13.701h2.74zM23.794 59L15.83 36.48h-2.055V59H.246V.773h16.527C28.59.773 36.039 6.51 36.039 18.07c0 6.935-2.74 12.244-7.878 15.327L38.266 59H23.794z" fill="#FFF" mask="url(#b)"/></g><path fill="#FFF" d="M233.333 58.912V.685h28.552v11.817h-15.108v11.132h9.162v11.73h-9.162v11.817h15.108v11.731zM233.333 124.396V66.169h28.552v11.816h-15.108v11.132h9.162v11.731h-9.162v11.817h15.108v11.731zM10.63 124.396V77.985H0V66.169h34.79v11.816H24.16v46.411z"/></g></svg>