<?xml version="1.0" standalone="no"?>
<!DOCTYPE svg PUBLIC "-//W3C//DTD SVG 20010904//EN"
 "http://www.w3.org/TR/2001/REC-SVG-20010904/DTD/svg10.dtd">
<svg version="1.0" xmlns="http://www.w3.org/2000/svg"
 width="800.050000pt" height="800.050000pt" viewBox="0 0 800.05 800.05"
 preserveAspectRatio="xMidYMid meet">
<path d="M115.59,307.75q12.73,6.51,29.26,6.51A79,79,0,0,0,163.61,312a62.78,62.78,0,0,0,16.38-6.3l-2.24-18.48a72.46,72.46,0,0,1-15.54,5.88,63.24,63.24,0,0,1-15.54,2.1q-16.66,0-26.46-9.59t-9.8-26a37.87,37.87,0,0,1,4.62-19,31.5,31.5,0,0,1,12.74-12.46,38.61,38.61,0,0,1,18.48-4.34q14.13,0,29.4,7.56l3.5-18.06a56.85,56.85,0,0,0-15.47-6.23A71.33,71.33,0,0,0,146,204.78q-17.22,0-30.38,7.28a51,51,0,0,0-20.23,19.81,56.35,56.35,0,0,0-7.07,28.21q0,16.53,7.28,28.84A48.33,48.33,0,0,0,115.59,307.75Z"/><path d="M212.54,310.48q9.3,4.49,21.77,4.48a73.39,73.39,0,0,0,15.26-1.54,43.92,43.92,0,0,0,12.32-4.34l-2-15.26a44.63,44.63,0,0,1-11,3.85A58.37,58.37,0,0,1,236.41,299q-20.58,0-24.22-16h50.26a46.9,46.9,0,0,0,.7-8.4,39.59,39.59,0,0,0-4.27-18.9A29.9,29.9,0,0,0,247,243.49a35.74,35.74,0,0,0-17.71-4.27,36.49,36.49,0,0,0-19.18,5,33.67,33.67,0,0,0-12.74,13.58,41.35,41.35,0,0,0-4.48,19.39q0,11.63,5.18,20.23A33.33,33.33,0,0,0,212.54,310.48Zm5.11-52.43a15.7,15.7,0,0,1,11.06-4q6.85,0,11,4t4.83,11.41H212.05Q213.31,262,217.65,258.05Z"/><path d="M326.29,312.72h19.46V269.46q0-14.7-6.65-22.47t-19.25-7.77a27.75,27.75,0,0,0-13,2.87,20.86,20.86,0,0,0-8.61,8.19l-.14-8.82H279.39v71.26h19.46V274.36q0-8.53,3.85-13.23t10.85-4.69q12.74,0,12.74,16.66Z"/><path d="M400.35,297.74c-4,0-6.86-1.07-8.54-3.22s-2.52-5.69-2.52-10.64V257.56h22.26v-16.1H389.29V222.14H369.83v19.32H356v16.1h13.86v29.82q0,14,6.44,20.79T396,315a49.74,49.74,0,0,0,10.71-1.12,29.88,29.88,0,0,0,8.33-2.94L413,294.66A26.17,26.17,0,0,1,400.35,297.74Z"/><path d="M447.25,280.24q0-10.35,4.41-16.1t12.39-5.74a23.93,23.93,0,0,1,8.68,1.68l1.68-18.34a21.84,21.84,0,0,0-8.26-1.54,20.11,20.11,0,0,0-11.55,3.36,23,23,0,0,0-7.91,9.66l-.14-11.76H427.79v71.26h19.46Z"/><path d="M528.16,312.09a23.18,23.18,0,0,0,9.67-8.47l.28,9.1h18.62V241.46H538.11l-.28,9.24a23.78,23.78,0,0,0-9.46-8.47,28.92,28.92,0,0,0-13.22-3,31,31,0,0,0-17.65,5.25,35.16,35.16,0,0,0-12.1,13.86,42.08,42.08,0,0,0-4.28,19,43.46,43.46,0,0,0,4.34,19.81,32.13,32.13,0,0,0,11.83,13.23A31.51,31.51,0,0,0,514.16,315,32.06,32.06,0,0,0,528.16,312.09ZM500.58,277q0-9,5.25-14.7a19.1,19.1,0,0,1,27.3,0q5.25,5.74,5.25,14.7t-5.31,14.84a18.93,18.93,0,0,1-27.16,0Q500.59,286.13,500.58,277Z"/><rect x="576.04" y="199.32" width="19.46" height="113.4"/><path d="M364.09,400.58a17.66,17.66,0,0,0-13.65,5.74q-5.25,5.74-5.25,14.7t5.32,14.84a18.93,18.93,0,0,0,27.16,0Q383,430.13,383,421q0-9-5.25-14.7A17.66,17.66,0,0,0,364.09,400.58Z"/><path d="M89.61,328.34l-61.26,147H710.28l61.42-147Zm65.11,122.15Q143.86,459,125,459a84.16,84.16,0,0,1-20-2.45q-10.08-2.44-15.82-6.37l2.1-18.34a57,57,0,0,0,15.68,6.86,63.51,63.51,0,0,0,17.22,2.52q9.66,0,14.91-3.57a11.42,11.42,0,0,0,5.25-10,10.57,10.57,0,0,0-4.41-8.82q-4.41-3.36-16.73-7.28-17.36-5.46-24.78-13t-7.42-20a27.93,27.93,0,0,1,4.55-15.82,29.92,29.92,0,0,1,13.23-10.71,49.78,49.78,0,0,1,20.3-3.85,70.27,70.27,0,0,1,16.8,2.1,59.33,59.33,0,0,1,15,5.74l-2.94,17.78A59.89,59.89,0,0,0,144.22,368a53.3,53.3,0,0,0-14.49-2.17q-9,0-13.51,3.22a10.62,10.62,0,0,0-4.55,9.24,10.43,10.43,0,0,0,1.75,6.23,14.83,14.83,0,0,0,5.74,4.41,86.86,86.86,0,0,0,11.41,4.34q19,6,27,13.79t8,20.23Q165.57,442,154.72,450.49Zm68.88,7.35A49.74,49.74,0,0,1,212.89,459q-13.3,0-19.74-6.79t-6.44-20.79V401.56H172.85v-16.1h13.86V366.14h19.46v19.32h22.26v16.1H206.17v26.32q0,7.42,2.52,10.64c1.68,2.15,4.52,3.22,8.54,3.22a26.17,26.17,0,0,0,12.6-3.08l2.1,16.24A29.88,29.88,0,0,1,223.6,457.84Zm86.87-1.12H291.71l-.14-8.68a20.38,20.38,0,0,1-8.61,8.12,28,28,0,0,1-12.81,2.8q-12.6,0-19.25-7.77t-6.65-22.47V385.46h19.46v39.62q0,16.67,12.74,16.66,7,0,10.78-4.69T291,423.82V385.46h19.46Zm90.86,0H382.71l-.28-9.1a23.21,23.21,0,0,1-9.66,8.47,32.12,32.12,0,0,1-14,2.87,31.46,31.46,0,0,1-16.87-4.62,32,32,0,0,1-11.83-13.23,43.34,43.34,0,0,1-4.34-19.81,42.08,42.08,0,0,1,4.27-19,35.11,35.11,0,0,1,12.11-13.86,31,31,0,0,1,17.64-5.25,29.25,29.25,0,0,1,12.81,2.8,23.63,23.63,0,0,1,9.31,7.84V343.32h19.46ZM486.17,427H435.91q3.63,16,24.22,16a58.37,58.37,0,0,0,12.53-1.33,44.63,44.63,0,0,0,11-3.85l2,15.26a43.92,43.92,0,0,1-12.32,4.34A73.39,73.39,0,0,1,458,459q-12.46,0-21.77-4.48a33.33,33.33,0,0,1-14.49-13.09q-5.19-8.61-5.18-20.23a41.35,41.35,0,0,1,4.48-19.39,33.67,33.67,0,0,1,12.74-13.58,36.49,36.49,0,0,1,19.18-5,35.74,35.74,0,0,1,17.71,4.27,29.9,29.9,0,0,1,11.9,12.25,39.59,39.59,0,0,1,4.27,18.9A46.9,46.9,0,0,1,486.17,427Zm83.3,29.68H550V417.1q0-16.65-12.74-16.66-7,0-10.85,4.69t-3.85,13.23v38.36H503.11V385.46h18.76l.14,8.82a20.86,20.86,0,0,1,8.61-8.19,27.75,27.75,0,0,1,13-2.87q12.6,0,19.25,7.77t6.65,22.47Zm61,1.12A49.6,49.6,0,0,1,619.72,459q-13.29,0-19.73-6.79t-6.45-20.79V401.56H579.68v-16.1h13.86V366.14H613v19.32h22.26v16.1H613v26.32q0,7.42,2.52,10.64t8.54,3.22a26.11,26.11,0,0,0,12.6-3.08l2.1,16.24A29.65,29.65,0,0,1,630.43,457.84Zm65.66-4.76Q687.9,459,673.48,459a61.13,61.13,0,0,1-15.4-1.89q-7.27-1.89-11.2-5l2.38-15.82a44.71,44.71,0,0,0,23.38,7.14q11.91,0,11.9-6a5.53,5.53,0,0,0-2.52-4.9q-2.52-1.68-10.5-3.92-12.6-3.49-18-8.89t-5.39-14.49q0-10.21,7.7-16.1T677,383.22a57.88,57.88,0,0,1,13.16,1.54,37.81,37.81,0,0,1,10.78,4.06l-2.24,15.4a39.63,39.63,0,0,0-10-4,43.19,43.19,0,0,0-10.85-1.47q-10.22,0-10.22,5.46a5.6,5.6,0,0,0,2.45,4.83q2.46,1.76,9.73,3.85,13.44,3.93,19,9.24t5.53,14.7A18.89,18.89,0,0,1,696.09,453.08ZM726,385H711.56a104.13,104.13,0,0,0,5.74-34.72h18.2A75.4,75.4,0,0,1,726,385Z"/><path d="M452.43,398.06a15.7,15.7,0,0,0-11.06,4q-4.35,4-5.6,11.41h32.48q-.71-7.41-4.83-11.41T452.43,398.06Z"/><path d="M166.13,554.1q0,29.82-25.76,29.82T114.75,554.1V494.32H93.33v61.46q0,22.54,12.32,34.86T140.23,603q22.68,0,35-12.32t12.32-34.86V494.32H166.13Z"/><path d="M249,527.22a27.75,27.75,0,0,0-12.95,2.87,20.86,20.86,0,0,0-8.61,8.19l-.14-8.82H208.55v71.26H228V562.36q0-8.54,3.85-13.23t10.85-4.69q12.73,0,12.74,16.66v39.62h19.46V557.46q0-14.7-6.65-22.47T249,527.22Z"/><rect x="293.8" y="529.46" width="19.46" height="71.26"/><path d="M303.47,492.36a11.44,11.44,0,0,0-8.33,3.22,10.7,10.7,0,0,0-3.29,8,10.91,10.91,0,0,0,3.29,8.05,11.26,11.26,0,0,0,8.33,3.29,11.42,11.42,0,0,0,8.33-3.22,10.88,10.88,0,0,0,3.29-8.12,10.74,10.74,0,0,0-3.29-8A11.46,11.46,0,0,0,303.47,492.36Z"/><path d="M386.13,531.91a40.16,40.16,0,0,0-19.25-4.69A38.56,38.56,0,0,0,347,532.4a36.56,36.56,0,0,0-13.65,13.79,39.67,39.67,0,0,0,.35,38.57,36,36,0,0,0,13.93,13.44A39.57,39.57,0,0,0,366.88,603a38.44,38.44,0,0,0,19.88-5.18A36.49,36.49,0,0,0,400.41,584a39.94,39.94,0,0,0-.35-38.71A35.51,35.51,0,0,0,386.13,531.91Zm-5.67,48a18.93,18.93,0,0,1-27.16,0Q348,574.13,348,565q0-9,5.25-14.7a19.1,19.1,0,0,1,27.3,0q5.25,5.74,5.25,14.7T380.46,579.86Z"/><path d="M461,527.22A27.78,27.78,0,0,0,448,530.09a20.86,20.86,0,0,0-8.61,8.19l-.14-8.82H420.5v71.26H440V562.36q0-8.54,3.85-13.23t10.85-4.69q12.73,0,12.74,16.66v39.62h19.46V557.46q0-14.7-6.65-22.47T461,527.22Z"/>
</svg>
