<svg id="Layer_1" data-name="Layer 1" xmlns="http://www.w3.org/2000/svg" viewBox="0 0 841.89 270.98"><defs><style>.cls-1{fill:#231f20;}.cls-2{fill:#e52628;}</style></defs><title>solent_university</title><path class="cls-1" d="M53.69,264.06C49.54,268.21,43.15,271,33.78,271c-8.84,0-14.7-2.57-18.53-6.18-5.65-5.53-6.82-13.74-6.82-20.13V199.73h7.78v45.05c0,4.8,1.06,10.65,5,14.59C23.87,262.13,27.92,264,34,264c6.71,0,11.08-1.82,13.95-4.68,3.19-3.41,4.37-8.31,4.37-13.85V199.73h7.77v46.76c0,6.38-1.81,12.88-6.39,17.57" transform="translate(0 0)"/><path class="cls-1" d="M162.93,269.91l-35.57-47.28c-4.16-5.53-6.07-8.2-7.35-11h-.21c.1,2.35.21,4.79.21,8.52v49.73h-7.77V199.73h8.09l34.07,45.59c4.8,6.38,6.71,9,8,11.81h.2c-.1-2.34-.2-4.79-.2-8.51V199.73h7.76v70.18h-7.23" transform="translate(0 0)"/><rect class="cls-1" x="222.19" y="199.73" width="7.77" height="70.18"/><path class="cls-1" d="M306.25,270.23h-4.36l-27.69-70.5h8.31l18,46.76c1.28,3.4,2.66,7.24,3.94,10.86h.21c1.18-3.62,2.45-7,4.06-10.86l19.48-46.76h8.1l-30,70.5" transform="translate(0 0)"/><polyline class="cls-1" points="380.7 269.91 380.7 199.73 415.09 199.73 412.11 206.98 388.47 206.98 388.47 230.41 411.9 230.41 411.9 237.54 388.47 237.54 388.47 262.67 415.41 262.67 415.41 269.91 380.7 269.91"/><path class="cls-1" d="M498.62,269.91c-11.29-17.89-17.89-29.7-21.52-29.7h-7v29.7h-7.77V199.73h13.95c17,0,23.74,8.63,23.74,19.18,0,10.11-6.18,15.75-13.73,18.63v.21c2.23,1.17,10.22,14.17,21.61,32.16h-9.26M476.79,207h-6.71v26h6.28c9.05,0,15.23-5.86,15.23-13.42,0-6.7-3.63-12.56-14.8-12.56" transform="translate(0 0)"/><path class="cls-1" d="M568.45,271a33.54,33.54,0,0,1-19.16-5.54l3.72-6.28a27.23,27.23,0,0,0,15.34,4.9c6.39,0,13.95-3.09,13.95-10.54,0-12.36-16.83-14.91-25.45-24.18a17.83,17.83,0,0,1-5-12.67c0-9.9,7.45-17.47,20.23-17.47a33.14,33.14,0,0,1,15.54,3.41v8.31a28.69,28.69,0,0,0-15.33-4.58c-6.82,0-12.78,2.77-12.78,9.58,0,15.66,31.1,15.76,31.1,36.85,0,10.86-9.48,18.21-22.16,18.21" transform="translate(0 0)"/><rect class="cls-1" x="638.21" y="199.73" width="7.77" height="70.18"/><polyline class="cls-1" points="738.39 206.98 718.48 206.98 718.48 269.91 710.71 269.91 710.71 206.98 690.58 206.98 690.58 199.73 741.16 199.73 738.39 206.98"/><path class="cls-1" d="M812.39,241.8v28.12h-7.77V241.58l-23.33-41.85h8.52l12.47,22.48c2.13,3.72,4.57,8.09,6.28,11.71h.21c1.6-3.62,3.94-8.1,5.86-11.71l12.13-22.48H835L812.39,241.8" transform="translate(0 0)"/><path class="cls-2" d="M43.24,143.81C23.43,143.81,9.37,137.42,0,131l10.44-19c7.67,5.33,18.53,10.66,31.74,10.66,10.86,0,23.22-4.48,23.22-16.2,0-20-34.09-23.65-51.13-42.82C8.73,57.52,5.11,49.43,5.11,38.57,5.11,17.68,21.51,0,50.91,0,65.83,0,77.76,3.62,85.43,7.88l-.43,23c-10.87-6-21.31-9.8-32.81-9.8C40.9,21.09,32,26,32,35.37c0,26,60.72,24.5,60.72,68.17,0,24.71-21.73,40.27-49.43,40.27" transform="translate(0 0)"/><path class="cls-2" d="M253.81,123.57C241,136.35,223.34,143.8,202.25,143.8c-20.45,0-37.28-6-49.64-17.25-14.27-12.79-22.16-31.75-22.16-53.69,0-20.88,7.25-39.2,20.24-52.41C163.26,7.67,180.94,0,202.25,0c22.58,0,41.33,7.88,53.9,21.73C267.87,34.51,273.83,52,273.83,71.58c0,20.67-7,39.21-20,52M202,21.52c-26.2,0-44.52,19-44.52,50.49,0,31.75,18.32,50.7,44.52,50.7,26,0,44.32-18.95,44.32-50.7,0-30.68-17.47-50.49-44.32-50.49" transform="translate(0 0)"/><polyline class="cls-2" points="319.08 141.68 319.08 1.28 344.86 1.28 344.86 119.95 395.14 119.95 395.14 141.68 319.08 141.68"/><polyline class="cls-2" points="436.83 141.68 436.83 1.28 515.02 1.28 507.99 22.8 462.62 22.8 462.62 59.23 507.99 59.23 507.99 80.75 462.62 80.75 462.62 120.16 515.02 120.16 515.02 141.68 436.83 141.68"/><path class="cls-2" d="M666.23,141.68,602.75,59.44c-6-7.88-10-13.2-13.85-19.18h-.43c.43,4.7.64,12.15.64,18.76v82.66H563.33V1.28h26.2l61.15,79c6.6,8.53,10.44,13.85,13.85,19.6H665c-.42-6.18-.42-14.27-.42-20.45V1.28h25.56v140.4H666.23" transform="translate(0 0)"/><polyline class="cls-2" points="835.71 22.8 797.36 22.8 797.36 141.67 771.37 141.67 771.37 22.8 730.69 22.8 730.69 1.27 841.89 1.27 835.71 22.8"/></svg>