<?xml version="1.0" standalone="no"?>
<!DOCTYPE svg PUBLIC "-//W3C//DTD SVG 20010904//EN"
 "http://www.w3.org/TR/2001/REC-SVG-20010904/DTD/svg10.dtd">
<svg version="1.0" xmlns="http://www.w3.org/2000/svg"
 width="1024.000000pt" height="1024.000000pt" viewBox="0 0 1024.000000 1024.000000"
 preserveAspectRatio="xMidYMid meet">
<metadata>
Created by potrace 1.11, written by Peter Selinger 2001-2013
</metadata>
<g transform="translate(0.000000,1024.000000) scale(0.100000,-0.100000)"
fill="#000000" stroke="none">
<path d="M4888 10235 c-2 -2 -57 -6 -123 -10 -66 -3 -133 -8 -150 -10 -16 -2
-57 -7 -90 -10 -32 -4 -67 -8 -76 -10 -9 -2 -40 -6 -70 -10 -30 -3 -61 -8 -69
-10 -8 -2 -35 -7 -60 -10 -84 -12 -274 -53 -430 -94 -620 -160 -1219 -447
-1746 -837 -385 -284 -755 -652 -1043 -1034 -39 -52 -75 -100 -79 -105 -23
-28 -157 -233 -219 -335 -101 -166 -204 -363 -286 -545 -59 -132 -136 -325
-130 -325 3 0 1 -6 -4 -12 -15 -19 -91 -257 -147 -458 -37 -135 -94 -416 -112
-555 -3 -27 -8 -58 -9 -67 -2 -9 -7 -48 -10 -85 -4 -37 -9 -75 -10 -84 -19
-100 -27 -731 -12 -889 13 -130 18 -184 23 -220 2 -19 7 -55 10 -80 3 -25 12
-85 20 -135 9 -49 17 -101 19 -115 7 -49 56 -266 81 -360 14 -52 29 -108 33
-125 l7 -30 4914 0 4915 0 51 203 c28 111 51 204 51 205 0 2 21 122 27 152 2
11 7 42 10 68 4 27 9 59 12 70 2 12 6 40 8 62 12 111 17 152 21 170 19 100 27
663 12 894 -5 69 -10 127 -12 130 -1 4 -6 38 -9 76 -4 39 -8 81 -11 95 -2 14
-6 41 -9 60 -13 85 -17 116 -21 135 -67 396 -191 808 -357 1185 -230 524 -560
1022 -948 1434 -691 732 -1533 1229 -2485 1469 -123 31 -166 41 -275 62 -52
10 -197 34 -240 40 -25 3 -56 8 -70 10 -14 2 -50 7 -80 10 -30 3 -75 8 -100
10 -134 14 -209 17 -452 20 -147 1 -269 1 -270 0z"/>
<path d="M370 3211 c13 -43 77 -188 147 -332 l66 -136 4536 1 4536 1 57 112
c65 130 168 365 162 374 -2 3 -2143 6 -4757 6 l-4755 0 8 -26z"/>
<path d="M858 2299 c-14 -9 294 -430 333 -455 17 -10 7829 -12 7852 -1 33 15
355 442 343 455 -8 7 -8516 8 -8528 1z"/>
<path d="M1660 1350 c0 -19 408 -349 525 -425 30 -19 76 -19 2935 -20 l2905
-1 85 60 c91 65 341 265 428 343 l53 48 -3465 0 c-1906 0 -3466 -2 -3466 -5z"/>
<path d="M3067 450 l-49 -5 169 -67 c199 -81 359 -135 543 -187 118 -34 361
-91 443 -105 15 -3 53 -10 85 -15 31 -6 77 -13 102 -16 25 -3 54 -7 65 -9 11
-2 49 -7 85 -11 36 -4 76 -9 90 -11 118 -19 746 -27 910 -10 47 4 92 8 100 8
14 0 101 10 210 24 272 34 663 127 955 227 149 51 405 152 429 170 13 9 -446
12 -2036 12 -1129 0 -2075 -2 -2101 -5z"/>
</g>
</svg>
