<svg id="Layer_1" data-name="Layer 1" xmlns="http://www.w3.org/2000/svg" viewBox="0 0 283.46 283.46"><defs><style>.cls-1{fill:#33373c;}</style></defs><title>Twitter</title><path class="cls-1" d="M141.73,0A141.73,141.73,0,1,0,283.46,141.75,141.74,141.74,0,0,0,141.73,0m0,265.76a124,124,0,1,1,124-124,124,124,0,0,1-124,124"/><path class="cls-1" d="M225.61,77.61a73.18,73.18,0,0,1-23.13,8.84,36.45,36.45,0,0,0-62.07,33.22A103.35,103.35,0,0,1,65.33,81.6a36.47,36.47,0,0,0,11.25,48.64,36,36,0,0,1-16.48-4.56c0,.16,0,.31,0,.46a36.5,36.5,0,0,0,29.22,35.74,37.47,37.47,0,0,1-9.59,1.26,36.74,36.74,0,0,1-6.85-.65,36.47,36.47,0,0,0,34,25.3A73.59,73.59,0,0,1,53,202.86a103.08,103.08,0,0,0,55.84,16.38c67,0,103.63-55.5,103.63-103.65,0-1.58,0-3.14-.09-4.72A74.35,74.35,0,0,0,230.52,92a73.55,73.55,0,0,1-20.94,5.74,36.6,36.6,0,0,0,16-20.16"/></svg>