<svg id="Layer_1" data-name="Layer 1" xmlns="http://www.w3.org/2000/svg" viewBox="0 0 771.7 431.99"><defs><style>.cls-1{fill:#fff;}</style></defs><path class="cls-1" d="M349.91,215.43a17.66,17.66,0,0,0-13.65,5.74q-5.25,5.75-5.25,14.7,0,9.1,5.32,14.84a18.93,18.93,0,0,0,27.16,0q5.33-5.73,5.32-14.84,0-9-5.25-14.7A17.66,17.66,0,0,0,349.91,215.43Z"/><path class="cls-1" d="M438.25,212.91a15.72,15.72,0,0,0-11.06,4q-4.33,4-5.6,11.41h32.48q-.69-7.41-4.83-11.41T438.25,212.91Z"/><path class="cls-1" d="M75.44,143.19l-61.27,147H696.11l61.42-147Zm65.11,122.15q-10.86,8.48-29.75,8.47a84.16,84.16,0,0,1-20-2.45Q80.7,268.92,75,265l2.1-18.34a57,57,0,0,0,15.68,6.86A63.51,63.51,0,0,0,110,256q9.66,0,14.91-3.57a11.42,11.42,0,0,0,5.25-10,10.57,10.57,0,0,0-4.41-8.82q-4.41-3.36-16.73-7.28-17.37-5.46-24.78-13t-7.42-20a27.93,27.93,0,0,1,4.55-15.82,29.92,29.92,0,0,1,13.23-10.71,49.78,49.78,0,0,1,20.3-3.85,70.27,70.27,0,0,1,16.8,2.1,59.33,59.33,0,0,1,15,5.74l-2.94,17.78a59.89,59.89,0,0,0-13.65-5.67,53.3,53.3,0,0,0-14.49-2.17q-9,0-13.51,3.22a10.62,10.62,0,0,0-4.55,9.24,10.43,10.43,0,0,0,1.75,6.23,14.83,14.83,0,0,0,5.74,4.41,86.86,86.86,0,0,0,11.41,4.34q19,6,27,13.79t8,20.23Q151.4,256.87,140.55,265.34Zm68.88,7.35a49.74,49.74,0,0,1-10.71,1.12q-13.31,0-19.74-6.79t-6.44-20.79V216.41H158.68v-16.1h13.86V181H192v19.32h22.26v16.1H192v26.32q0,7.43,2.52,10.64c1.68,2.15,4.52,3.22,8.54,3.22a26.17,26.17,0,0,0,12.6-3.08l2.1,16.24A29.88,29.88,0,0,1,209.43,272.69Zm86.87-1.12H277.54l-.15-8.68a20.3,20.3,0,0,1-8.6,8.12,28,28,0,0,1-12.82,2.8q-12.58,0-19.25-7.77t-6.64-22.47V200.31h19.46v39.62q0,16.66,12.74,16.66,7,0,10.78-4.69t3.78-13.23V200.31H296.3Zm90.85,0H368.53l-.28-9.1a23.09,23.09,0,0,1-9.66,8.47,32.09,32.09,0,0,1-14,2.87,31.51,31.51,0,0,1-16.87-4.62A32.13,32.13,0,0,1,315.89,256a43.46,43.46,0,0,1-4.34-19.81,42.21,42.21,0,0,1,4.27-19,35.26,35.26,0,0,1,12.11-13.86,31,31,0,0,1,17.64-5.25,29.19,29.19,0,0,1,12.81,2.8,23.49,23.49,0,0,1,9.31,7.84V158.17h19.46ZM472,241.89H421.73q3.64,16,24.22,16a58.3,58.3,0,0,0,12.53-1.33,44.48,44.48,0,0,0,11-3.85l2,15.26a43.81,43.81,0,0,1-12.32,4.34,73.33,73.33,0,0,1-15.26,1.54q-12.45,0-21.77-4.48a33.44,33.44,0,0,1-14.49-13.09A38.51,38.51,0,0,1,402.41,236a41.48,41.48,0,0,1,4.48-19.39A33.8,33.8,0,0,1,419.63,203a36.51,36.51,0,0,1,19.18-5,35.71,35.71,0,0,1,17.71,4.27,29.78,29.78,0,0,1,11.9,12.25q4.27,8,4.27,18.9A46,46,0,0,1,472,241.89Zm83.3,29.68H535.83V232q0-16.65-12.74-16.66-7,0-10.85,4.69t-3.85,13.23v38.36H488.93V200.31h18.76l.14,8.82a21,21,0,0,1,8.61-8.19,27.81,27.81,0,0,1,12.95-2.87q12.6,0,19.25,7.77t6.65,22.47Zm61,1.12a49.67,49.67,0,0,1-10.71,1.12q-13.31,0-19.74-6.79t-6.44-20.79V216.41H565.51v-16.1h13.86V181h19.46v19.32h22.26v16.1H598.83v26.32q0,7.43,2.52,10.64t8.54,3.22a26.17,26.17,0,0,0,12.6-3.08l2.1,16.24A29.65,29.65,0,0,1,616.26,272.69Zm65.66-4.76q-8.19,5.88-22.61,5.88a61.07,61.07,0,0,1-15.4-1.89q-7.27-1.89-11.2-5l2.38-15.82a44.71,44.71,0,0,0,23.38,7.14q11.89,0,11.9-6a5.53,5.53,0,0,0-2.52-4.9q-2.52-1.68-10.5-3.92-12.6-3.5-18-8.89T634,220.05q0-10.22,7.7-16.1t21.14-5.88A58,58,0,0,1,676,199.61a37.81,37.81,0,0,1,10.78,4.06l-2.24,15.4a39.63,39.63,0,0,0-10-4,43.25,43.25,0,0,0-10.85-1.47q-10.21,0-10.22,5.46a5.6,5.6,0,0,0,2.45,4.83q2.45,1.75,9.73,3.85,13.44,3.93,19,9.24t5.53,14.7A18.89,18.89,0,0,1,681.92,267.93Zm29.89-68H697.39a104.13,104.13,0,0,0,5.74-34.72h18.2a75.4,75.4,0,0,1-9.52,34.72Z"/><path class="cls-1" d="M101.42,122.6q12.74,6.51,29.26,6.51a79,79,0,0,0,18.76-2.24,62.78,62.78,0,0,0,16.38-6.3l-2.24-18.48A72.46,72.46,0,0,1,148,108a63.24,63.24,0,0,1-15.54,2.1q-16.66,0-26.46-9.59t-9.8-26a37.87,37.87,0,0,1,4.62-19A31.5,31.5,0,0,1,113.6,43a38.61,38.61,0,0,1,18.48-4.34q14.13,0,29.4,7.56L165,28.17a56.85,56.85,0,0,0-15.47-6.23,71.33,71.33,0,0,0-17.71-2.31q-17.22,0-30.38,7.28A51,51,0,0,0,81.19,46.72a56.35,56.35,0,0,0-7.07,28.21q0,16.53,7.28,28.84A48.27,48.27,0,0,0,101.42,122.6Z"/><path class="cls-1" d="M220.14,129.81a73.39,73.39,0,0,0,15.26-1.54,43.92,43.92,0,0,0,12.32-4.34l-2-15.26a44.63,44.63,0,0,1-11,3.85,58.37,58.37,0,0,1-12.53,1.33q-20.58,0-24.22-16h50.26a46.9,46.9,0,0,0,.7-8.4,39.59,39.59,0,0,0-4.27-18.9,29.9,29.9,0,0,0-11.9-12.25,35.74,35.74,0,0,0-17.71-4.27,36.49,36.49,0,0,0-19.18,5,33.67,33.67,0,0,0-12.74,13.58A41.35,41.35,0,0,0,178.7,92q0,11.63,5.18,20.23a33.33,33.33,0,0,0,14.49,13.09Q207.67,129.82,220.14,129.81ZM203.48,72.9a15.7,15.7,0,0,1,11.06-4q6.86,0,11,4t4.83,11.41H197.88Q199.14,76.9,203.48,72.9Z"/><path class="cls-1" d="M331.58,127.57V84.31q0-14.7-6.65-22.47t-19.25-7.77a27.75,27.75,0,0,0-12.95,2.87,20.86,20.86,0,0,0-8.61,8.19L284,56.31H265.22v71.26h19.46V89.21q0-8.53,3.85-13.23t10.85-4.69q12.74,0,12.74,16.66v39.62Z"/><path class="cls-1" d="M386.17,112.59q-6,0-8.54-3.22t-2.52-10.64V72.41h22.26V56.31H375.11V37H355.65V56.31H341.79v16.1h13.86v29.82q0,14,6.44,20.79t19.74,6.79a49.6,49.6,0,0,0,10.71-1.12,29.65,29.65,0,0,0,8.33-2.94l-2.1-16.24A26.11,26.11,0,0,1,386.17,112.59Z"/><path class="cls-1" d="M433.07,95.09q0-10.35,4.41-16.1t12.39-5.74a23.85,23.85,0,0,1,8.68,1.68l1.68-18.34A21.8,21.8,0,0,0,452,55.05a20.16,20.16,0,0,0-11.55,3.36,23.12,23.12,0,0,0-7.91,9.66l-.14-11.76H413.61v71.26h19.46Z"/><path class="cls-1" d="M523.65,65.55a23.69,23.69,0,0,0-9.45-8.47,28.93,28.93,0,0,0-13.23-3,31,31,0,0,0-17.64,5.25,35.26,35.26,0,0,0-12.11,13.86,42.08,42.08,0,0,0-4.27,19A43.46,43.46,0,0,0,471.29,112a32.13,32.13,0,0,0,11.83,13.23A31.51,31.51,0,0,0,500,129.81a32.09,32.09,0,0,0,14-2.87,23.15,23.15,0,0,0,9.66-8.47l.28,9.1h18.62V56.31H523.93Zm-4.76,41.16a18.93,18.93,0,0,1-27.16,0q-5.31-5.73-5.32-14.84,0-9,5.25-14.7a19.1,19.1,0,0,1,27.3,0q5.25,5.74,5.25,14.7T518.89,106.71Z"/><rect class="cls-1" x="561.87" y="14.17" width="19.46" height="113.4"/><path class="cls-1" d="M152,369q0,29.82-25.76,29.82T100.58,369V309.17H79.16v61.46q0,22.55,12.32,34.86t34.58,12.32q22.68,0,35-12.32t12.32-34.86V309.17H152Z"/><path class="cls-1" d="M234.83,342.07a27.81,27.81,0,0,0-13,2.87,21,21,0,0,0-8.61,8.19l-.14-8.82H194.37v71.26h19.46V377.21q0-8.54,3.85-13.23t10.85-4.69q12.75,0,12.74,16.66v39.62h19.46V372.31q0-14.7-6.65-22.47T234.83,342.07Z"/><path class="cls-1" d="M289.29,307.21a11.44,11.44,0,0,0-8.33,3.22,10.74,10.74,0,0,0-3.29,8,11,11,0,0,0,3.29,8,11.26,11.26,0,0,0,8.33,3.29,11.4,11.4,0,0,0,8.33-3.22,10.88,10.88,0,0,0,3.29-8.12,10.74,10.74,0,0,0-3.29-8A11.44,11.44,0,0,0,289.29,307.21Z"/><rect class="cls-1" x="279.63" y="344.31" width="19.46" height="71.26"/><path class="cls-1" d="M372,346.76a40.16,40.16,0,0,0-19.25-4.69,38.56,38.56,0,0,0-19.88,5.18A36.56,36.56,0,0,0,319.18,361a39.67,39.67,0,0,0,.35,38.57,36,36,0,0,0,13.93,13.44,39.54,39.54,0,0,0,19.25,4.76,38.46,38.46,0,0,0,19.88-5.18,36.49,36.49,0,0,0,13.65-13.79,39.94,39.94,0,0,0-.35-38.71A35.57,35.57,0,0,0,372,346.76Zm-5.67,47.95a18.93,18.93,0,0,1-27.16,0q-5.33-5.73-5.32-14.84,0-9,5.25-14.7a19.1,19.1,0,0,1,27.3,0q5.25,5.74,5.25,14.7T366.29,394.71Z"/><path class="cls-1" d="M446.79,342.07a27.75,27.75,0,0,0-13,2.87,20.86,20.86,0,0,0-8.61,8.19l-.14-8.82H406.33v71.26h19.46V377.21q0-8.54,3.85-13.23t10.85-4.69q12.74,0,12.74,16.66v39.62h19.46V372.31q0-14.7-6.65-22.47T446.79,342.07Z"/></svg>