<svg xmlns="http://www.w3.org/2000/svg" xmlns:xlink="http://www.w3.org/1999/xlink" version="1.2" viewBox="0 0 640 640" baseProfile="tiny-ps">  <title>Q on dark square tiny1.2</title>  <rect width="640" height="640" fill="#181818"/>  <g>    <path d="M460.65,284.759c0-37.588-13.104-70.297-39.307-98.132c-26.21-27.829-61.358-41.748-105.451-41.748   c-43.017,0-77.623,13.199-103.826,39.579c-26.21,26.388-39.307,60.18-39.307,101.385c0,39.037,13.554,71.931,40.663,98.676   c27.108,26.752,61.444,40.119,103.012,40.119c42.29,0,76.895-13.095,103.826-39.307C447.18,359.129,460.65,325.607,460.65,284.759z   " fill="none"/>    <path d="M423.512,493.222c-18.256-4.88-38.765-13.104-61.536-24.668   c45.897-9.396,82.953-31.259,111.145-65.604c28.192-34.334,42.29-74.089,42.29-119.277c0-51.683-18.434-96.048-55.302-133.101   C423.242,113.526,375.343,95,316.433,95c-56.384,0-103.554,18.078-141.506,54.217C136.976,185.363,118,230.906,118,285.843   c0,33.616,7.319,63.435,21.959,89.458c14.638,26.025,31.529,45.543,50.692,58.555c19.154,13.012,57.47,33.801,114.939,62.349   S412.575,541.018,454.145,545l16.265-44.459C457.397,500.541,441.759,498.102,423.512,493.222z M213.421,384.518   c-27.108-26.745-40.663-59.639-40.663-98.676c0-41.204,13.097-74.996,39.307-101.385c26.203-26.38,60.809-39.579,103.826-39.579   c44.094,0,79.241,13.92,105.451,41.748c26.203,27.836,39.307,60.544,39.307,98.132c0,40.848-13.47,74.37-40.391,100.571   c-26.93,26.212-61.536,39.307-103.826,39.307C274.865,424.637,240.53,411.27,213.421,384.518z" fill="#FFCC00"/>    <polygon points="455.178,500.541 454.145,545 640,545 640,500.541  " fill="#FFCC00"/>  </g></svg>