<svg xmlns="http://www.w3.org/2000/svg" xmlns:xlink="http://www.w3.org/1999/xlink" version="1.2" viewBox="0 0 640 640" baseProfile="tiny-ps">  <title>Square whiteBG</title>  <rect width="640" height="640" fill="#FFFFFF"/>  <g>    <g>      <path d="M152.48,229.614h-34.678v24.959h33.479v10.439h-33.479v25.438h35.758v10.56h-47.518v-81.837h46.438V229.614z"/>      <path d="M196.281,219.173c7.68,0,20.999,0,31.918,8.4c9.12,6.959,15.719,18.479,15.719,32.519    c0,20.759-14.639,31.679-19.679,34.799c-9.959,6.119-21.239,6.119-29.639,6.119h-25.919v-81.837H196.281z M180.322,229.614v60.837    h15.119c6.12,0,15.719-0.479,22.679-4.68c8.28-5.16,13.68-15.119,13.68-26.279c0-9.959-4.56-21.358-17.04-26.879    c-6.72-2.999-12.24-2.999-19.679-2.999H180.322z"/>      <path d="M335.959,301.491h-2.52l-26.759-66.718l-26.999,66.718h-2.52l-32.999-82.317h11.759l22.56,56.398l22.679-56.398h11.16    l22.799,56.398l22.319-56.398h11.64L335.959,301.491z"/>      <path d="M439.64,301.01h-12l-10.919-24.119h-34.798l-10.32,24.119h-12l35.159-82.316h8.28L439.64,301.01z M411.921,266.331    l-13.2-29.639l-12.239,29.639H411.921z"/>      <path d="M469.521,219.173c3.84,0,8.88,0.36,14.039,2.641c8.76,3.72,12.84,11.879,12.84,20.159c0,9.479-4.8,16.679-13.68,20.159    c7.439,4.92,12,12.479,18.239,22.559c3.479,5.64,5.52,8.399,11.159,16.319H498.2c-2.76-3.96-14.159-21.839-16.8-25.318    c-8.039-10.32-11.999-10.32-17.639-10.32h-3.12v35.639h-11.64v-81.837H469.521z M460.642,229.133v25.799h4.56    c1.801,0,8.16,0,11.4-1.2c5.52-2.159,7.799-7.319,7.799-11.759c0-4.68-2.399-9.12-6.239-10.92c-3-1.439-6.84-1.92-13.92-1.92    H460.642z"/>      <path d="M548.84,219.173c7.68,0,20.999,0,31.918,8.4c9.12,6.959,15.72,18.479,15.72,32.519c0,20.759-14.64,31.679-19.679,34.799    c-9.96,6.119-21.239,6.119-29.639,6.119h-25.92v-81.837H548.84z M532.88,229.614v60.837H548c6.119,0,15.719-0.479,22.679-4.68    c8.279-5.16,13.68-15.119,13.68-26.279c0-9.959-4.56-21.358-17.04-26.879c-6.719-2.999-12.239-2.999-19.679-2.999H532.88z"/>      <path d="M175.76,357.412c-8.64-4.919-18.359-8.159-28.319-8.159c-19.799,0-32.399,14.64-32.399,31.079    c0,15.239,10.8,30.838,32.519,30.838c10.319,0,20.399-3.479,29.039-9.119v12.84c-9.479,5.159-19.319,7.199-29.759,7.199    c-30.358,0-44.038-22.799-44.038-41.878c0-22.56,18.359-42.118,44.278-42.118c12.6,0,23.399,4.439,28.679,6.72V357.412z"/>      <path d="M263.838,421.01h-12l-10.919-24.119h-34.798l-10.32,24.119h-12l35.159-82.316h8.28L263.838,421.01z M236.12,386.331    l-13.2-29.639l-12.239,29.639H236.12z"/>      <path d="M284.6,410.33h36.838v10.68h-48.718v-81.837H284.6V410.33z"/>      <path d="M343.399,410.33h36.838v10.68H331.52v-81.837h11.879V410.33z"/>      <path d="M468.195,379.972c0,23.519-17.999,42.118-44.758,42.118c-25.679,0-43.198-18.959-43.198-41.758    c0-21.72,15.839-42.238,43.798-42.238C451.276,338.094,468.195,358.013,468.195,379.972z M392.358,380.332    c0,18.599,14.64,30.838,31.799,30.838c8.76,0,18.239-3.6,23.879-9.719c5.16-5.641,8.16-14.52,8.16-21.6    c0-13.56-10.32-30.719-31.679-30.719C401.598,349.133,392.358,366.653,392.358,380.332z"/>      <path d="M560.596,421.491h-2.52l-26.759-66.718l-26.999,66.718h-2.52L468.8,339.173h11.76l22.559,56.398l22.68-56.398h11.159    l22.799,56.398l22.319-56.398h11.64L560.596,421.491z"/>    </g>    <rect x="43.522" y="200" width="9.119" height="240" fill="#E4002B"/>  </g></svg>