<svg xmlns="http://www.w3.org/2000/svg" xmlns:xlink="http://www.w3.org/1999/xlink" version="1.2" viewBox="0 0 640 640" baseProfile="tiny-ps">  <title>CSU-digital_Square_red_invert_tiny1.2_tiny_ps</title>  <rect width="640" height="640" fill="#DC0714"/>  <g>    <g>      <path d="M292.154,319.566c-4.339,0-7.865,1.483-10.577,4.448c-2.712,2.966-4.068,6.763-4.068,11.39    c0,4.702,1.373,8.534,4.123,11.499c2.748,2.966,6.255,4.448,10.523,4.448c4.266,0,7.773-1.481,10.523-4.448    c2.748-2.965,4.122-6.797,4.122-11.499c0-4.627-1.356-8.424-4.068-11.39C300.018,321.049,296.493,319.566,292.154,319.566z" fill="#FFFFFF"/>      <path d="M360.604,317.613c-3.471,0-6.329,1.031-8.57,3.092c-2.243,2.061-3.688,5.009-4.339,8.841h25.167    c-0.362-3.833-1.61-6.78-3.743-8.841C366.986,318.644,364.147,317.613,360.604,317.613z" fill="#FFFFFF"/>      <path d="M79.469,263.585L32,377.486l528.41,0.001L608,263.585H79.469z M129.921,358.24    c-5.606,4.376-13.289,6.563-23.052,6.563c-5.136,0-10.306-0.634-15.513-1.899c-5.207-1.264-9.294-2.91-12.259-4.936l1.627-14.211    c3.471,2.242,7.521,4.014,12.15,5.315c4.627,1.302,9.075,1.953,13.343,1.953c4.99,0,8.841-0.922,11.553-2.766    c2.712-1.844,4.068-4.429,4.068-7.757c0-2.82-1.139-5.099-3.417-6.834c-2.278-1.736-6.6-3.616-12.963-5.641    c-8.968-2.82-15.369-6.183-19.201-10.089c-3.834-3.905-5.749-9.075-5.749-15.512c0-4.628,1.174-8.714,3.525-12.259    c2.349-3.543,5.766-6.309,10.251-8.299c4.483-1.988,9.726-2.983,15.73-2.983c4.266,0,8.605,0.543,13.018,1.627    c4.41,1.085,8.28,2.568,11.607,4.448l-2.278,13.777c-3.11-1.807-6.636-3.271-10.577-4.393c-3.943-1.12-7.685-1.681-11.228-1.681    c-4.629,0-8.119,0.832-10.468,2.495c-2.351,1.665-3.526,4.051-3.526,7.16c0,1.953,0.451,3.563,1.356,4.827    c0.904,1.266,2.387,2.405,4.448,3.417c2.061,1.014,5.007,2.134,8.841,3.363c9.835,3.11,16.815,6.671,20.937,10.685    c4.123,4.014,6.183,9.239,6.183,15.676C138.328,347.879,135.525,353.865,129.921,358.24z M183.293,363.935    c-2.641,0.578-5.407,0.868-8.299,0.868c-6.872,0-11.97-1.753-15.296-5.261c-3.327-3.507-4.99-8.877-4.99-16.109v-23.107h-10.74    V307.85h10.74V292.88h15.079v14.971h17.248v12.475h-17.248v20.395c0,3.834,0.651,6.582,1.953,8.244    c1.302,1.665,3.507,2.495,6.617,2.495c3.543,0,6.797-0.795,9.763-2.387l1.627,12.584    C188.083,362.597,185.932,363.355,183.293,363.935z M250.606,363.067h-14.537l-0.109-6.726c-1.591,2.749-3.815,4.846-6.671,6.292    c-2.858,1.446-6.166,2.17-9.926,2.17c-6.509,0-11.482-2.007-14.916-6.021c-3.436-4.014-5.153-9.818-5.153-17.411V307.85h15.079    v30.7c0,8.608,3.29,12.909,9.872,12.909c3.616,0,6.4-1.21,8.353-3.634c1.953-2.422,2.929-5.839,2.929-10.251V307.85h15.079    V363.067z M321.009,363.067h-14.428l-0.217-7.051c-1.882,2.894-4.376,5.082-7.485,6.563c-3.11,1.481-6.726,2.224-10.848,2.224    c-4.846,0-9.204-1.193-13.072-3.58c-3.87-2.387-6.926-5.804-9.167-10.251c-2.242-4.448-3.363-9.563-3.363-15.35    c0-5.351,1.102-10.251,3.309-14.699c2.205-4.448,5.332-8.027,9.384-10.74c4.049-2.712,8.606-4.068,13.668-4.068    c3.616,0,6.924,0.724,9.926,2.169c3,1.448,5.406,3.471,7.214,6.075v-39.162h15.079V363.067z M386.748,340.069h-38.945    c1.88,8.245,8.136,12.367,18.767,12.367c3.326,0,6.563-0.342,9.709-1.03c3.146-0.687,5.983-1.682,8.516-2.983l1.519,11.824    c-2.604,1.448-5.787,2.568-9.547,3.363c-3.762,0.795-7.702,1.193-11.824,1.193c-6.438,0-12.06-1.158-16.869-3.472    c-4.81-2.314-8.553-5.695-11.227-10.143c-2.676-4.448-4.014-9.672-4.014-15.676c0-5.568,1.156-10.577,3.472-15.025    c2.313-4.448,5.603-7.954,9.871-10.522c4.267-2.566,9.221-3.851,14.862-3.851c5.207,0,9.78,1.103,13.723,3.309    c3.941,2.207,7.014,5.37,9.22,9.492c2.206,4.122,3.309,9.004,3.309,14.645C387.291,335.947,387.109,338.116,386.748,340.069z     M451.295,363.067h-15.079v-30.7c0-8.606-3.292-12.909-9.872-12.909c-3.617,0-6.418,1.212-8.407,3.634    c-1.99,2.424-2.983,5.841-2.983,10.251v29.724h-15.079V307.85h14.536l0.108,6.834c1.59-2.748,3.814-4.863,6.672-6.346    c2.856-1.482,6.2-2.224,10.035-2.224c6.508,0,11.48,2.007,14.916,6.021c3.434,4.014,5.152,9.817,5.152,17.411V363.067z     M498.537,363.935c-2.641,0.578-5.407,0.868-8.299,0.868c-6.872,0-11.97-1.753-15.295-5.261c-3.328-3.507-4.99-8.877-4.99-16.109    v-23.107h-10.74V307.85h10.74V292.88h15.079v14.971h17.248v12.475h-17.248v20.395c0,3.834,0.651,6.582,1.952,8.244    c1.302,1.665,3.507,2.495,6.617,2.495c3.543,0,6.797-0.795,9.764-2.387l1.627,12.584    C503.328,362.597,501.177,363.355,498.537,363.935z M549.415,360.246c-4.231,3.037-10.072,4.556-17.52,4.556    c-4.195,0-8.173-0.488-11.932-1.465c-3.762-0.977-6.655-2.26-8.679-3.851l1.844-12.258c2.458,1.664,5.333,3.002,8.624,4.014    c3.29,1.014,6.455,1.519,9.492,1.519c6.146,0,9.221-1.555,9.221-4.665c0-1.663-0.651-2.929-1.953-3.797    c-1.302-0.868-4.014-1.88-8.136-3.037c-6.508-1.807-11.157-4.104-13.94-6.888c-2.785-2.784-4.176-6.526-4.176-11.228    c0-5.278,1.989-9.438,5.967-12.475c3.977-3.037,9.438-4.556,16.38-4.556c3.398,0,6.797,0.398,10.197,1.193    c3.398,0.797,6.184,1.844,8.353,3.146l-1.736,11.933c-2.243-1.302-4.828-2.332-7.756-3.092c-2.929-0.759-5.733-1.139-8.408-1.139    c-5.28,0-7.919,1.41-7.919,4.231c0,1.592,0.633,2.839,1.899,3.743c1.264,0.905,3.778,1.898,7.539,2.983    c6.943,2.025,11.842,4.412,14.7,7.16c2.856,2.75,4.284,6.546,4.284,11.391C555.761,353.016,553.646,357.209,549.415,360.246z     M572.575,307.524h-11.174c2.965-8.461,4.448-17.428,4.448-26.903h14.103c-0.073,4.629-0.778,9.329-2.116,14.102    C576.497,299.497,574.744,303.765,572.575,307.524z" fill="#FFFFFF"/>    </g>    <g>      <path d="M99.601,247.635c6.58,3.363,14.138,5.045,22.673,5.045c4.917,0,9.763-0.58,14.536-1.736    c4.773-1.156,9.004-2.783,12.693-4.882l-1.736-14.319c-3.761,1.953-7.775,3.471-12.041,4.556    c-4.268,1.085-8.282,1.627-12.041,1.627c-8.607,0-15.442-2.476-20.503-7.431c-5.063-4.953-7.594-11.662-7.594-20.123    c0-5.641,1.193-10.558,3.58-14.753c2.386-4.193,5.676-7.412,9.872-9.655c4.194-2.241,8.967-3.363,14.319-3.363    c7.304,0,14.898,1.953,22.781,5.858l2.712-13.994c-3.327-2.024-7.322-3.634-11.987-4.827c-4.665-1.193-9.24-1.79-13.723-1.79    c-8.895,0-16.744,1.882-23.541,5.641c-6.799,3.761-12.024,8.879-15.676,15.35c-3.653,6.473-5.478,13.76-5.478,21.859    c0,8.535,1.88,15.984,5.641,22.347C87.848,239.409,93.019,244.272,99.601,247.635z" fill="#FFFFFF"/>      <path d="M191.592,253.222c4.122,0,8.063-0.398,11.824-1.193c3.76-0.795,6.943-1.916,9.546-3.363    l-1.519-11.824c-2.532,1.302-5.37,2.297-8.516,2.983c-3.146,0.688-6.384,1.03-9.709,1.03c-10.631,0-16.887-4.122-18.767-12.367    h38.945c0.361-1.953,0.543-4.122,0.543-6.509c0-5.641-1.104-10.523-3.309-14.645c-2.207-4.122-5.28-7.285-9.221-9.492    c-3.943-2.205-8.516-3.309-13.723-3.309c-5.641,0-10.596,1.285-14.862,3.851c-4.268,2.568-7.558,6.075-9.872,10.522    c-2.315,4.448-3.471,9.457-3.471,15.025c0,6.004,1.337,11.228,4.014,15.676c2.675,4.448,6.417,7.829,11.228,10.143    C179.532,252.064,185.154,253.222,191.592,253.222z M178.683,209.124c2.241-2.061,5.099-3.092,8.57-3.092    c3.543,0,6.382,1.031,8.516,3.092c2.132,2.061,3.38,5.009,3.743,8.841h-25.168C174.995,214.133,176.441,211.186,178.683,209.124z" fill="#FFFFFF"/>      <path d="M277.943,251.486v-33.52c0-7.594-1.719-13.397-5.153-17.411c-3.436-4.014-8.407-6.021-14.916-6.021    c-3.834,0-7.178,0.742-10.034,2.224c-2.858,1.483-5.082,3.598-6.672,6.346l-0.108-6.834h-14.537v55.217h15.079v-29.724    c0-4.41,0.994-7.828,2.983-10.251c1.988-2.422,4.79-3.634,8.407-3.634c6.58,0,9.872,4.303,9.872,12.909v30.7H277.943z" fill="#FFFFFF"/>      <path d="M320.249,239.879c-3.11,0-5.315-0.83-6.617-2.495c-1.302-1.662-1.953-4.41-1.953-8.244v-20.395    h17.249V196.27h-17.249v-14.971H296.6v14.971h-10.74v12.475h10.74v23.107c0,7.233,1.663,12.602,4.99,16.109    c3.326,3.508,8.424,5.261,15.296,5.261c2.891,0,5.658-0.29,8.299-0.868c2.639-0.58,4.79-1.337,6.455-2.278l-1.627-12.584    C327.047,239.084,323.792,239.879,320.249,239.879z" fill="#FFFFFF"/>      <path d="M356.591,226.319c0-5.351,1.139-9.509,3.417-12.475c2.278-2.964,5.478-4.448,9.6-4.448    c2.241,0,4.483,0.434,6.726,1.302l1.302-14.211c-1.953-0.795-4.087-1.193-6.401-1.193c-3.4,0-6.384,0.868-8.95,2.603    c-2.568,1.736-4.611,4.231-6.129,7.485l-0.108-9.112h-14.536v55.217h15.079V226.319z" fill="#FFFFFF"/>      <path d="M426.777,203.429c-1.809-2.821-4.25-5.007-7.323-6.563c-3.074-1.554-6.492-2.332-10.251-2.332    c-5.063,0-9.619,1.356-13.669,4.068c-4.051,2.712-7.178,6.292-9.383,10.74c-2.207,4.448-3.309,9.348-3.309,14.699    c0,5.787,1.121,10.902,3.363,15.35c2.241,4.448,5.297,7.865,9.167,10.251c3.868,2.387,8.226,3.58,13.072,3.58    c4.123,0,7.738-0.743,10.848-2.224c3.109-1.482,5.604-3.67,7.485-6.563l0.217,7.051h14.428V196.27h-14.428L426.777,203.429z     M423.089,235.323c-2.75,2.966-6.256,4.448-10.523,4.448c-4.268,0-7.775-1.481-10.523-4.448    c-2.749-2.965-4.123-6.797-4.123-11.499c0-4.627,1.356-8.424,4.068-11.39c2.712-2.965,6.238-4.448,10.577-4.448    c4.339,0,7.864,1.483,10.576,4.448c2.712,2.966,4.068,6.763,4.068,11.39C427.211,228.526,425.837,232.358,423.089,235.323z" fill="#FFFFFF"/>      <rect x="456.393" y="163.617" width="15.079" height="87.87" fill="#FFFFFF"/>      <path d="M138.762,438.523c0,15.404-6.654,23.107-19.96,23.107c-13.235,0-19.852-7.702-19.852-23.107    v-46.322H82.352v47.623c0,11.645,3.182,20.649,9.546,27.012c6.363,6.365,15.296,9.547,26.795,9.547    c11.716,0,20.756-3.182,27.12-9.547c6.363-6.363,9.546-15.367,9.546-27.012v-47.623h-16.598V438.523z" fill="#FFFFFF"/>      <path d="M202.982,417.695c-3.834,0-7.178,0.742-10.034,2.224c-2.858,1.483-5.082,3.598-6.672,6.346    l-0.108-6.834h-14.537v55.217h15.079v-29.724c0-4.41,0.994-7.827,2.983-10.251c1.988-2.422,4.79-3.634,8.407-3.634    c6.58,0,9.872,4.304,9.872,12.909v30.7h15.079v-33.52c0-7.594-1.719-13.397-5.153-17.412    C214.462,419.702,209.491,417.695,202.982,417.695z" fill="#FFFFFF"/>      <path d="M245.18,390.683c-2.603,0-4.756,0.832-6.455,2.496c-1.7,1.664-2.549,3.725-2.549,6.183    c0,2.459,0.849,4.539,2.549,6.238c1.698,1.7,3.851,2.549,6.455,2.549s4.754-0.83,6.455-2.495c1.698-1.663,2.549-3.759,2.549-6.292    c0-2.458-0.851-4.519-2.549-6.183C249.934,391.515,247.783,390.683,245.18,390.683z" fill="#FFFFFF"/>      <rect x="237.694" y="419.431" width="15.079" height="55.217" fill="#FFFFFF"/>      <path d="M309.237,421.329c-4.521-2.422-9.492-3.634-14.916-3.634c-5.714,0-10.848,1.339-15.405,4.014    c-4.556,2.676-8.082,6.238-10.577,10.685c-2.495,4.448-3.743,9.313-3.743,14.591c0,5.714,1.337,10.813,4.014,15.296    c2.675,4.485,6.273,7.957,10.794,10.415c4.519,2.458,9.492,3.688,14.916,3.688c5.712,0,10.848-1.339,15.404-4.014    c4.556-2.674,8.082-6.238,10.577-10.685c2.495-4.447,3.743-9.346,3.743-14.699c0-5.712-1.339-10.811-4.014-15.296    C317.354,427.206,313.755,423.753,309.237,421.329z M304.843,458.484c-2.749,2.966-6.256,4.448-10.523,4.448    c-4.268,0-7.775-1.482-10.523-4.448c-2.749-2.964-4.123-6.797-4.123-11.499c0-4.627,1.356-8.424,4.068-11.391    c2.712-2.964,6.238-4.447,10.577-4.447c4.339,0,7.865,1.483,10.577,4.447c2.712,2.966,4.068,6.763,4.068,11.391    C308.965,451.687,307.591,455.52,304.843,458.484z" fill="#FFFFFF"/>      <path d="M367.218,417.695c-3.834,0-7.179,0.742-10.035,2.224c-2.858,1.483-5.082,3.598-6.672,6.346    l-0.108-6.834h-14.536v55.217h15.079v-29.724c0-4.41,0.993-7.827,2.983-10.251c1.989-2.422,4.79-3.634,8.407-3.634    c6.58,0,9.872,4.304,9.872,12.909v30.7h15.079v-33.52c0-7.594-1.718-13.397-5.152-17.412    C378.698,419.702,373.726,417.695,367.218,417.695z" fill="#FFFFFF"/>    </g>  </g></svg>