<svg id="Layer_1" data-name="Layer 1" xmlns="http://www.w3.org/2000/svg" xmlns:xlink="http://www.w3.org/1999/xlink" viewBox="0 0 283.48 283.46"><defs><style>.cls-1{fill:none;}.cls-2{clip-path:url(#clip-path);}.cls-3{fill:#33373c;}</style><clipPath id="clip-path" transform="translate(0.01)"><rect class="cls-1" width="283.46" height="283.46"/></clipPath></defs><title>Facebook</title><g class="cls-2"><path class="cls-3" d="M141.73,0A141.73,141.73,0,1,0,283.46,141.75,141.74,141.74,0,0,0,141.73,0m0,265.75a124,124,0,1,1,124-124,124,124,0,0,1-124,124" transform="translate(0.01)"/></g><path class="cls-3" d="M149.23,243.52V155.93h29.4L183,121.8h-33.8V100c0-9.88,2.75-16.62,16.91-16.62h18.09V52.83a244.35,244.35,0,0,0-26.35-1.34C131.82,51.49,114,67.41,114,96.61V121.8H84.5v34.13H114v87.59" transform="translate(0.01)"/></svg>