<svg id="Layer_1" data-name="Layer 1" xmlns="http://www.w3.org/2000/svg" xmlns:xlink="http://www.w3.org/1999/xlink" viewBox="0 0 283.48 283.45"><defs><style>.cls-1{fill:none;}.cls-2{clip-path:url(#clip-path);}.cls-3{fill:#33373c;}</style><clipPath id="clip-path" transform="translate(0.01 0)"><rect class="cls-1" width="283.46" height="283.46"/></clipPath></defs><title>LinkedIn</title><g class="cls-2"><path class="cls-3" d="M141.73,0A141.73,141.73,0,1,0,283.46,141.74,141.74,141.74,0,0,0,141.73,0m0,265.75a124,124,0,1,1,124-124,124,124,0,0,1-124,124" transform="translate(0.01 0)"/></g><rect class="cls-3" x="83.75" y="112.89" width="28.42" height="90.86"/><path class="cls-3" d="M106.87,70.38a17.34,17.34,0,0,0-9-2.65,16.07,16.07,0,0,0-12.53,5.82,16.35,16.35,0,0,0-3.87,10.59,15.88,15.88,0,0,0,5.81,12.35A16.6,16.6,0,0,0,98,100.38,15.72,15.72,0,0,0,110.74,94,16.2,16.2,0,0,0,114.09,84q0-8.29-7.22-13.58" transform="translate(0.01 0)"/><path class="cls-3" d="M183.61,110.42a30.88,30.88,0,0,0-20.11,7.24,24.41,24.41,0,0,0-4.41,4.41,20.26,20.26,0,0,0-1.94,3.35H157c-.11,0-.17,0-.17-.17V112.89h-27v90.87h28.06V161.42c0-8,.58-13.35,1.76-16.06q3.7-9.88,14.81-9.88h1.06c5.77,0,9.76,2.65,12,7.94a19.05,19.05,0,0,1,1.59,5.83c.22,1.4.35,5.87.35,13.41v41.1h28.39V153.12q0-23.28-8.1-32.81-8-9.89-26.12-9.89" transform="translate(0.01 0)"/></svg>